<?xml version="1.0" encoding="UTF-8" standalone="no"?>
<!-- Created with Inkscape (http://www.inkscape.org/) -->

<svg
   xmlns:dc="http://purl.org/dc/elements/1.1/"
   xmlns:cc="http://creativecommons.org/ns#"
   xmlns:rdf="http://www.w3.org/1999/02/22-rdf-syntax-ns#"
   xmlns:svg="http://www.w3.org/2000/svg"
   xmlns="http://www.w3.org/2000/svg"
   xmlns:sodipodi="http://sodipodi.sourceforge.net/DTD/sodipodi-0.dtd"
   xmlns:inkscape="http://www.inkscape.org/namespaces/inkscape"
   width="1594.4882"
   height="1594.4882"
   id="svg5577"
   version="1.1"
   inkscape:version="0.47 r22583"
   sodipodi:docname="wordclockFront_gerV2.svg">
  <defs
     id="defs3">
    <inkscape:perspective
       sodipodi:type="inkscape:persp3d"
       inkscape:vp_x="0 : 526.18109 : 1"
       inkscape:vp_y="0 : 1000 : 0"
       inkscape:vp_z="744.09448 : 526.18109 : 1"
       inkscape:persp3d-origin="372.04724 : 350.78739 : 1"
       id="perspective5583" />
    <inkscape:perspective
       id="perspective5572"
       inkscape:persp3d-origin="0.5 : 0.33333333 : 1"
       inkscape:vp_z="1 : 0.5 : 1"
       inkscape:vp_y="0 : 1000 : 0"
       inkscape:vp_x="0 : 0.5 : 1"
       sodipodi:type="inkscape:persp3d" />
    <inkscape:perspective
       id="perspective3694"
       inkscape:persp3d-origin="0.5 : 0.33333333 : 1"
       inkscape:vp_z="1 : 0.5 : 1"
       inkscape:vp_y="0 : 1000 : 0"
       inkscape:vp_x="0 : 0.5 : 1"
       sodipodi:type="inkscape:persp3d" />
    <inkscape:perspective
       id="perspective3385"
       inkscape:persp3d-origin="0.5 : 0.33333333 : 1"
       inkscape:vp_z="1 : 0.5 : 1"
       inkscape:vp_y="0 : 1000 : 0"
       inkscape:vp_x="0 : 0.5 : 1"
       sodipodi:type="inkscape:persp3d" />
    <inkscape:perspective
       id="perspective3570"
       inkscape:persp3d-origin="0.5 : 0.33333333 : 1"
       inkscape:vp_z="1 : 0.5 : 1"
       inkscape:vp_y="0 : 1000 : 0"
       inkscape:vp_x="0 : 0.5 : 1"
       sodipodi:type="inkscape:persp3d" />
  </defs>
  <sodipodi:namedview
     inkscape:document-units="mm"
     id="base"
     pagecolor="#ffffff"
     bordercolor="#666666"
     borderopacity="1.0"
     inkscape:pageopacity="0.0"
     inkscape:pageshadow="2"
     inkscape:zoom="0.49497474"
     inkscape:cx="232.74514"
     inkscape:cy="759.2927"
     inkscape:current-layer="layer1"
     showgrid="false"
     units="mm"
     inkscape:window-width="1542"
     inkscape:window-height="1026"
     inkscape:window-x="134"
     inkscape:window-y="-4"
     inkscape:window-maximized="1" />
  <metadata
     id="metadata4">
    <rdf:RDF>
      <cc:Work
         rdf:about="">
        <dc:format>image/svg+xml</dc:format>
        <dc:type
           rdf:resource="http://purl.org/dc/dcmitype/StillImage" />
        <dc:title></dc:title>
      </cc:Work>
    </rdf:RDF>
  </metadata>
  <g
     inkscape:label="Layer 1"
     inkscape:groupmode="layer"
     id="layer1"
     transform="translate(-921.62856,3297.1728)">
    <path
       style="fill:#000000;fill-opacity:1;fill-rule:nonzero;stroke:none"
       d="m 921.62856,-3297.1728 0,1594.4882 1594.48814,0 0,-1594.4882 -1594.48814,0 z m 90.82154,79.6337 c 6.4086,0 11.6153,4.9653 11.6153,11.1962 0,6.2305 -5.2067,11.336 -11.6153,11.336 -6.4082,0 -11.6153,-5.1055 -11.6153,-11.336 0,-6.2309 5.2071,-11.1962 11.6153,-11.1962 z m 1412.8451,0 c 6.4086,0 11.6153,4.9653 11.6153,11.1962 0,6.2305 -5.2067,11.336 -11.6153,11.336 -6.4082,0 -11.6153,-5.1055 -11.6153,-11.336 0,-6.2309 5.2071,-11.1962 11.6153,-11.1962 z m -419.4033,191.036 6.9966,0 0,6.9977 -6.9966,0 0,-6.9977 z m 19.8712,0 6.9975,0 0,6.9977 -6.9975,0 0,-6.9977 z m -704.4626,12.1762 c 4.642,0 9.877,0.742 15.6734,2.3789 l 0,6.9977 c -5.8233,-2.254 -10.9987,-3.4986 -15.5337,-3.4986 -7.1649,0 -10.7756,2.4466 -10.7752,7.2776 -4e-4,1.9589 0.7572,3.564 2.0989,4.7584 1.3416,1.1939 3.7943,2.3772 7.4171,3.6388 l 5.0379,1.8191 4.8977,1.6795 c 7.487,2.6302 11.1953,7.0156 11.1953,13.2958 0,4.7767 -1.9135,8.618 -5.7378,11.4761 -3.8239,2.8578 -8.98,4.3384 -15.3931,4.3384 -4.4548,0 -10.1555,-1.0337 -17.213,-2.9388 l 0,-7.8374 c 7.0307,3.1667 12.8504,4.7584 17.4924,4.7584 3.9179,0 7.0419,-0.6964 9.3763,-2.2393 2.3344,-1.5433 3.4983,-3.6947 3.4983,-6.2981 0,-1.9858 -0.7169,-3.4646 -2.0989,-4.6182 -1.3819,-1.1541 -4.2161,-2.6155 -8.5366,-4.1986 l -5.3173,-1.9594 c -5.2869,-1.9593 -9.0028,-3.9518 -11.0556,-6.0182 -2.0528,-2.0664 -3.0787,-4.822 -3.0787,-8.257 0,-4.6429 1.605,-8.227 4.758,-10.7766 3.153,-2.5496 7.5788,-3.7785 13.2946,-3.7785 z m 298.4942,0 c 4.6424,0 9.8769,0.742 15.6734,2.3789 l 0,6.9977 c -5.8234,-2.254 -10.9983,-3.4986 -15.5337,-3.4986 -7.1646,0 -10.7753,2.4466 -10.7753,7.2776 0,1.9589 0.7573,3.564 2.0994,4.7584 1.3416,1.1939 3.7938,2.3772 7.4166,3.6388 l 5.0379,1.8191 4.8982,1.6795 c 7.4865,2.6302 11.1948,7.0156 11.1953,13.2958 -5e-4,4.7767 -1.914,8.618 -5.7378,11.4761 -3.8239,2.8578 -8.98,4.3384 -15.3936,4.3384 -4.4543,0 -10.1554,-1.0337 -17.2129,-2.9388 l 0,-7.8374 c 7.0306,3.1667 12.8504,4.7584 17.4928,4.7584 3.9179,0 7.0414,-0.6964 9.3759,-2.2393 2.3348,-1.5433 3.4987,-3.6947 3.4987,-6.2981 0,-1.9858 -0.7174,-3.4646 -2.0989,-4.6182 -1.3824,-1.1541 -4.2161,-2.6155 -8.5366,-4.1986 l -5.3178,-1.9594 c -5.2864,-1.9593 -9.0023,-3.9518 -11.0556,-6.0182 -2.0527,-2.0664 -3.0787,-4.822 -3.0782,-8.257 -5e-4,-4.6429 1.6045,-8.227 4.7575,-10.7766 3.1535,-2.5496 7.5788,-3.7785 13.2947,-3.7785 z m 478.4584,1.1196 7.5563,0 23.6503,37.5075 0.1388,0 0,-37.3678 6.4369,0 0,51.643 -7.277,0 -23.9297,-37.9276 -0.1388,0 0,37.9276 -6.4368,0 0,-51.7827 z m -892.6843,0.1388 34.8451,0 0,5.8781 -27.0084,0 0,15.6747 22.9504,0 0,6.0182 -22.9504,0 0,18.0538 28.8279,0 0,6.0182 -36.6646,0 0,-51.643 z m 197.0373,0 7.9764,0 0,25.3318 21.6911,-25.3318 7.9764,0 -20.851,24.3519 24.7694,27.2911 -9.516,0 -24.0699,-26.3112 0,26.3112 -7.9764,0 0,-51.643 z m 99.638,0 35.825,0 0,5.8781 -13.8544,0 0,39.7467 13.8544,0 0,6.0182 -35.825,0 0,-6.0182 13.9942,0 0,-39.7467 -13.9942,0 0,-5.8781 z m 193.1188,0 47.5799,0 0,5.8781 -19.7314,0 0,45.7649 -7.9769,0 0,-45.7649 -19.8716,0 0,-5.8781 z m 107.4747,0 7.8367,0 0,45.6248 27.8485,0 0,6.0182 -35.6852,0 0,-51.643 z m 100.4777,0 36.6642,0 0,5.8781 -28.8275,0 0,17.914 24.6292,0 0,5.878 -24.6292,0 0,21.9729 -7.8367,0 0,-51.643 z m 95.7193,0 7.8367,0 0,31.3496 c 0,5.4749 0.9279,9.4406 2.6587,11.8962 1.7312,2.4556 4.5323,3.6388 8.3964,3.6388 4.0791,0 7.0186,-1.1832 8.8165,-3.6388 1.798,-2.4556 2.6587,-6.5668 2.6591,-12.1761 l 0,-31.0697 6.9967,0 0,29.95 c 0,6.4679 -0.8491,11.1779 -2.3788,13.9954 -3.2471,5.9846 -8.4932,8.957 -15.9533,8.957 -6.4673,0 -11.3144,-1.7758 -14.4137,-5.3183 -3.0998,-3.542 -4.6183,-9.021 -4.6183,-16.3743 l 0,-31.2098 z m 202.7749,0 36.6641,0 0,5.8781 -28.6877,0 0,17.914 24.4899,0 0,5.878 -24.4899,0 0,21.9729 -7.9764,0 0,-51.643 z m 20.1515,108.3239 c 4.5614,4e-4 9.4878,0.8231 14.6936,2.3794 l 0,7.2776 c -5.3133,-2.4422 -10.2182,-3.6388 -14.8338,-3.6388 -5.3401,0 -9.846,1.9598 -13.2941,5.878 -3.4486,3.9183 -5.1781,8.91 -5.1781,14.9748 0,6.0921 1.9865,11.0704 5.8775,14.9752 3.8911,3.9048 8.9361,5.8781 14.974,5.8781 1.3685,0 3.0576,-0.2374 5.1776,-0.5598 l 0,-13.5757 -9.6558,0 0,-6.0178 17.6322,0 0,24.072 c -5.3935,1.7175 -10.563,2.5191 -15.3931,2.5191 -7.997,0 -14.4473,-2.4529 -19.452,-7.4177 -5.0048,-4.9644 -7.5569,-11.3696 -7.5569,-19.3136 0,-8.1312 2.4258,-14.8279 7.4171,-19.8733 4.9909,-5.0451 11.541,-7.5571 19.5918,-7.5575 z m -720.6967,1.1196 7.5573,0 23.6498,37.5075 0.1388,0 0,-37.3673 6.4378,0 0,51.6425 -7.277,0 -23.9301,-37.7874 -0.1388,0 0,37.7874 -6.4378,0 0,-51.7827 z m 397.9925,0 7.5573,0 23.6494,37.5075 0.1388,0 0,-37.3673 6.4377,0 0,51.6425 -7.2769,0 -23.9297,-37.7874 -0.1388,0 0,37.7874 -6.4378,0 0,-51.7827 z m -696.4868,0.1388 39.4634,0 0,6.0182 -32.4663,39.7468 32.7462,0 0,5.878 -41.7025,0 0,-5.878 32.4664,-39.7468 -30.5072,0 0,-6.0182 z m 102.2974,0 34.8451,0 0,6.0182 -27.0084,0 0,15.6748 22.9503,0 0,5.8781 -22.9503,0 0,18.1939 28.8274,0 0,5.878 -36.6641,0 0,-51.643 z m 96.699,0 7.9769,0 0,22.6725 21.8308,0 0,-22.6725 7.9764,0 0,51.643 -7.9764,0 0,-23.0925 -21.8308,0 0,23.0925 -7.9769,0 0,-51.643 z m 198.9963,0 39.4634,0 0,6.0182 -32.3262,39.7468 32.6061,0 0,5.878 -41.7025,0 0,-5.878 32.4663,-39.7468 -30.5071,0 0,-6.0182 z m 94.1801,0 6.8574,0 6.1574,42.9659 0.1388,0 7.5564,-32.0495 7.5572,0 7.4167,31.4897 6.7171,-42.4061 6.0177,0 -8.5366,51.643 -8.6763,0 -6.9971,-30.2299 -0.1388,0 -7.1368,30.2299 -9.2361,0 -7.697,-51.643 z m 119.7896,0 7.8367,0 20.4318,51.643 -8.3964,0 -4.8982,-12.8757 -23.6498,0 -4.8982,12.8757 -6.8569,0 20.431,-51.643 z m 184.0223,0 39.4634,0 0,6.0182 -32.3262,39.7468 32.6061,0 0,5.878 -41.7025,0 0,-5.878 32.4664,-39.7468 -30.5072,0 0,-6.0182 z m 100.6179,0 35.6848,0 0,6.0182 -13.854,0 0,39.7468 13.854,0 0,5.878 -35.6848,0 0,-5.878 13.8539,0 0,-39.7468 -13.8539,0 0,-6.0182 z m -281.561,8.1173 -9.3763,24.6318 18.8922,0 -9.5159,-24.6318 z m -615.7411,101.6061 15.5333,0 c 17.174,5e-4 25.7491,8.2405 25.7491,24.772 0,7.6484 -1.8678,13.8905 -5.5976,18.6135 -2.3345,2.9791 -5.1149,5.0236 -8.5366,6.2982 -3.4213,1.2746 -8.0253,1.9593 -13.7138,1.9593 l -13.4344,0 0,-51.643 z m 101.597,0 14.5539,0 c 6.0109,5e-4 10.1205,0.4076 12.455,1.3996 4.9913,2.0668 7.5568,5.8234 7.5568,11.0565 0,3.5962 -1.0009,6.5552 -2.7988,8.957 -1.798,2.4018 -4.7433,4.6514 -8.9563,6.7178 l 18.3325,23.5121 -9.6561,0 -16.3734,-21.5528 -7.1367,0 0,21.5528 -7.9769,0 0,-51.643 z m 100.8978,0 34.8455,0 0,5.8781 -27.0088,0 0,15.6747 22.9503,0 0,6.0182 -22.9503,0 0,18.0538 28.8278,0 0,6.0182 -36.6645,0 0,-51.643 z m 97.6788,0 35.825,0 0,5.8781 -13.8544,0 0,39.7467 13.8544,0 0,6.0182 -35.825,0 0,-6.0182 13.9942,0 0,-39.7467 -13.9942,0 0,-5.8781 z m 93.2008,0 8.3965,0 16.3733,41.0066 16.9327,-41.0066 6.7171,0 -20.4314,51.643 -7.9768,0 -20.0114,-51.643 z m 105.7955,0 35.8249,0 0,5.8781 -13.8539,0 0,39.7467 13.8539,0 0,6.0182 -35.8249,0 0,-6.0182 13.9941,0 0,-39.7467 -13.9941,0 0,-5.8781 z m 101.3173,0 34.8456,0 0,5.8781 -26.8687,0 0,15.6747 22.8102,0 0,6.0182 -22.8102,0 0,18.0538 28.6877,0 0,6.0182 -36.6646,0 0,-51.643 z m 98.2387,0 14.4142,0 c 6.0105,5e-4 10.1196,0.4076 12.454,1.3996 4.9914,2.0668 7.5569,5.8234 7.5569,11.0565 0,3.5962 -0.8612,6.5552 -2.6587,8.957 -1.798,2.4018 -4.8834,4.6514 -9.0964,6.7178 l 18.3321,23.5121 -9.6557,0 -16.2328,-21.5528 -7.2769,0 0,21.5528 -7.8367,0 0,-51.643 z m 93.0602,0 47.7201,0 0,5.8781 -19.8716,0 0,45.7649 -7.9765,0 0,-45.7649 -19.872,0 0,-5.8781 z m 107.1953,0 34.8451,0 0,5.8781 -26.8687,0 0,15.6747 22.8106,0 0,6.0182 -22.8106,0 0,18.0538 28.8279,0 0,6.0182 -36.8043,0 0,-51.643 z m 99.7778,0 7.8367,0 0,45.6248 27.8485,0 0,6.0182 -35.6852,0 0,-51.643 z m -990.7828,5.8781 0,39.7467 3.9184,0 c 7.5671,0 13.0264,-1.4725 16.2332,-4.4785 3.2067,-3.0055 4.758,-8.03 4.758,-15.115 0,-7.192 -1.4402,-12.2948 -4.338,-15.3948 -2.8982,-3.0996 -7.7919,-4.758 -14.5539,-4.7584 l -6.0177,0 z m 101.5975,0 0,18.1939 4.1982,0 c 4.2667,4e-4 7.7203,-0.9203 10.2155,-2.7991 2.4956,-1.8783 3.6384,-4.3634 3.6389,-7.5575 -5e-4,-2.9786 -0.9207,-5.0571 -2.7988,-6.1579 -1.8786,-1.0999 -5.3111,-1.679 -10.3561,-1.6794 l -4.8977,0 z m 596.9887,0 0,18.1939 4.1982,0 c 4.2668,4e-4 7.7203,-0.9203 10.2155,-2.7991 2.4952,-1.8783 3.638,-4.3634 3.638,-7.5575 0,-2.9786 -0.9202,-5.0571 -2.7988,-6.1579 -1.8777,-1.0999 -5.3101,-1.679 -10.3547,-1.6794 l -4.8982,0 z m -582.155,102.4458 c 4.5619,4e-4 9.4878,0.8227 14.6936,2.3794 l 0,7.2776 c -5.3128,-2.4422 -10.3579,-3.6388 -14.9735,-3.6388 -5.3401,0 -9.7063,1.9598 -13.1544,5.878 -3.4482,3.9183 -5.1781,8.91 -5.1776,14.9748 -5e-4,6.0921 1.9865,11.0704 5.8771,14.9752 3.891,3.9048 8.7963,5.8781 14.8342,5.8781 1.3685,0 3.1973,-0.2374 5.3173,-0.5598 l 0,-13.5757 -9.7955,0 0,-6.0178 17.6322,0 0,24.072 c -5.3935,1.7175 -10.4233,2.5191 -15.2534,2.5191 -7.9965,0 -14.587,-2.4528 -19.5917,-7.4177 -5.0048,-4.9644 -7.4171,-11.3696 -7.4167,-19.3136 -4e-4,-8.1312 2.4254,-14.8279 7.4167,-19.8733 4.9913,-5.0451 11.5414,-7.5571 19.5917,-7.5575 z m 299.474,0 c 4.5618,4e-4 9.4878,0.8227 14.6936,2.3794 l 0,7.2776 c -5.3129,-2.4422 -10.2182,-3.6388 -14.8333,-3.6388 -5.3402,0 -9.8465,1.9598 -13.2947,5.878 -3.4481,3.9183 -5.178,8.91 -5.1776,14.9748 -4e-4,6.119 1.9865,11.0839 5.8771,14.9752 3.891,3.8914 8.8555,5.8781 14.9739,5.8781 3.703,0 8.1363,-1.0068 13.1545,-2.9393 l 0,6.5781 c -5.3133,1.9056 -10.2777,2.799 -14.9735,2.799 -8.2115,0 -14.8539,-2.4932 -19.8721,-7.4177 -5.0177,-4.9246 -7.5568,-11.289 -7.5563,-19.3136 -5e-4,-8.1312 2.4253,-14.8279 7.4166,-19.8733 4.9913,-5.0451 11.5415,-7.5571 19.5918,-7.5575 z m 292.197,0 c 6.8157,4e-4 12.3341,2.52 16.3724,7.4177 4.0388,4.8977 6.0177,11.4946 6.0177,19.7332 0,8.266 -1.9789,14.836 -6.0177,19.7337 -4.0383,4.8977 -9.5567,7.2775 -16.3724,7.2775 -6.8161,0 -12.1948,-2.3798 -16.2332,-7.2775 -4.0388,-4.8977 -6.0177,-11.4677 -6.0177,-19.7337 0,-8.2386 1.9789,-14.8355 6.0177,-19.7332 4.0384,-4.8977 9.4171,-7.4173 16.2332,-7.4177 z m -516.3827,1.1196 7.5569,0 23.6498,37.5075 0.1388,0 0,-37.3673 6.4373,0 0,51.6425 -7.277,0 -23.9301,-37.7874 -0.1388,0 0,37.7874 -6.4373,0 0,-51.7827 z m -203.8946,0.1388 47.58,0 0,6.0178 -19.8712,0 0,45.6248 -7.8367,0 0,-45.6248 -19.8721,0 0,-6.0178 z m 318.3665,0 7.8367,0 20.4314,51.6426 -8.3965,0 -4.8977,-12.8757 -23.6503,0 -4.8977,12.8757 -6.8573,0 20.4314,-51.6426 z m 184.0227,0 7.9764,0 0,22.6725 21.8309,0 0,-22.6725 7.9764,0 0,51.6426 -7.9764,0 0,-23.0921 -21.8309,0 0,23.0921 -7.9764,0 0,-51.6426 z m 94.1802,0 8.3964,0 16.5131,41.1463 16.7929,-41.1463 6.7172,0 -20.4314,51.6426 -7.9764,0 -20.0118,-51.6426 z m 205.8531,0 14.4137,0 c 6.011,0 10.1201,0.5464 12.455,1.5393 4.9908,2.0664 7.5564,5.6832 7.5564,10.9164 0,3.5962 -0.8607,6.5551 -2.6587,8.957 -1.798,2.4018 -4.8834,4.6513 -9.0964,6.7177 l 18.3325,23.5122 -9.6557,0 -16.2332,-21.4126 -7.2769,0 0,21.4126 -7.8367,0 0,-51.6426 z m 103.6961,0 25.8889,0 0,29.3902 c 0,5.2332 -0.3627,9.2065 -0.9794,11.7561 -0.617,2.5492 -1.7545,4.7853 -3.4987,6.7178 -3.059,3.4081 -7.4655,5.0383 -13.154,5.0383 -3.0863,0 -7.1511,-0.6713 -12.0354,-1.9594 l 0,-6.7177 2.6591,0.9794 c 3.6765,1.2079 6.6697,1.8196 8.8165,1.8196 3.7836,0 6.4601,-0.9803 7.9764,-2.9392 1.5163,-1.9589 2.2391,-5.5318 2.2391,-10.4963 l 0,-27.571 -17.9125,0 0,-6.0178 z m 91.6617,0 9.516,0 11.335,31.7692 0.1388,0 11.0556,-31.7692 9.936,0 0,51.6426 -6.4377,0 0,-44.2253 -11.7551,33.3089 -6.577,0 -11.6149,-32.4691 -0.1388,0 0,43.3855 -5.4575,0 0,-51.6426 z m -277.503,4.7584 c -4.4544,0 -7.8139,1.795 -10.2155,5.458 -2.402,3.6634 -3.6389,8.9387 -3.6389,15.6748 0,6.763 1.2369,11.8716 3.6389,15.535 2.4016,3.663 5.7611,5.5981 10.2155,5.5981 4.4544,0 7.9401,-1.9351 10.3552,-5.5981 2.415,-3.6634 3.6385,-8.772 3.6385,-15.535 0,-6.7361 -1.2235,-12.0114 -3.6385,-15.6748 -2.4151,-3.663 -5.9008,-5.458 -10.3552,-5.458 z m 89.9819,1.2594 0,18.1939 4.1978,0 c 4.2667,0 7.7203,-0.9203 10.2159,-2.799 2.4957,-1.8788 3.7782,-4.5036 3.7782,-7.6972 0,-2.9791 -1.06,-4.9179 -2.9385,-6.0183 -1.8786,-1.1003 -5.3106,-1.6794 -10.3557,-1.6794 l -4.8977,0 z m -488.814,2.0995 -9.3759,24.6318 18.8919,0 -9.516,-24.6318 z m 385.3978,88.1706 6.997,0 0,6.9977 -6.997,0 0,-6.9977 z m 19.8711,0 6.9971,0 0,6.9977 -6.9971,0 0,-6.9977 z m -304.9309,12.1757 c 6.8156,0 12.1943,2.3799 16.2331,7.2776 4.0384,4.8977 6.157,11.4677 6.1574,19.7336 -4e-4,5.9578 -1.1719,11.0875 -3.3586,15.3949 -2.1871,4.307 -5.2438,7.6497 -9.3762,9.7967 4.5081,3.1663 9.5916,5.4024 15.2533,6.7178 l -4.1978,6.8575 c -6.8967,-2.7104 -13.0729,-6.6036 -18.3325,-11.7561 -1.3416,0.081 -2.3541,0.1388 -3.0787,0.1388 -6.4404,0 -11.6749,-2.5657 -15.6734,-7.5574 -3.9985,-4.9918 -6.0177,-11.5425 -6.0172,-19.5935 -5e-4,-8.2655 2.1186,-14.8355 6.1574,-19.7332 4.0383,-4.8981 9.417,-7.2776 16.2332,-7.2776 z m 298.4941,0 c 6.8157,0 12.3341,2.3799 16.3724,7.2776 4.0388,4.8977 6.0177,11.4945 6.0177,19.7336 0,8.2656 -1.9789,14.8355 -6.0177,19.7332 -4.0383,4.8977 -9.5567,7.4178 -16.3724,7.4178 -6.8161,0 -12.1948,-2.5201 -16.2332,-7.4178 -4.0388,-4.8977 -6.0177,-11.4676 -6.0177,-19.7332 0,-8.2391 1.9789,-14.8359 6.0177,-19.7336 4.0384,-4.8977 9.4171,-7.2776 16.2332,-7.2776 z m -715.3791,1.2598 7.9764,0 0,22.5323 21.8308,0 0,-22.5323 7.9769,0 0,51.6426 -7.9769,0 0,-23.0921 -21.8308,0 0,23.0921 -7.9764,0 0,-51.6426 z m 114.472,0 7.8367,0 20.4314,51.6426 -8.3965,0 -4.8981,-13.0155 -23.6498,0 -4.8982,13.0155 -6.8569,0 20.4314,-51.6426 z m 87.4634,0 7.9764,0 0,45.6248 27.8485,0 0,6.0178 -35.8249,0 0,-51.6426 z m 98.0985,0 16.6532,0 c 12.0753,0 18.0522,3.8986 18.0522,11.8958 0,3.0593 -0.9991,5.7634 -3.0787,7.9776 -2.0796,2.2137 -4.9465,3.8188 -8.6764,4.7584 9.5801,1.9589 14.274,6.4365 14.274,13.5753 0,4.079 -1.3806,7.3487 -4.1982,9.657 -1.8248,1.5294 -3.823,2.4421 -6.1574,2.9388 -2.3344,0.4966 -6.1561,0.8397 -11.335,0.8397 l -15.5337,0 0,-51.6426 z m 197.4571,0 39.463,0 0,5.8781 -32.3262,39.7467 32.6065,0 0,6.0178 -41.7029,0 0,-6.0178 32.4663,-39.7467 -30.5067,0 0,-5.8781 z m 94.1802,0 6.8569,0 6.2975,42.8257 7.5568,-31.9093 7.5569,0 7.4171,31.4893 6.7171,-42.4057 6.0173,0 -8.5366,51.6426 -8.5362,0 -7.1373,-30.3697 -0.1388,0 -7.1372,30.3697 -9.2357,0 -7.6969,-51.6426 z m 207.3922,0 7.8367,0 0,45.6248 27.8481,0 0,6.0178 -35.6848,0 0,-51.6426 z m 100.4777,0 36.6646,0 0,5.8781 -28.6881,0 0,17.7738 24.4899,0 0,6.0182 -24.4899,0 0,21.9725 -7.9765,0 0,-51.6426 z m 98.6583,0 16.7929,0 c 5.9841,0 10.3257,0.4658 12.8746,1.5393 5.2063,2.2545 7.8367,6.5749 7.8367,13.0159 0,5.4208 -2.0975,9.7891 -6.2971,12.8757 -4.1996,3.0861 -9.9732,4.6182 -17.3527,4.6182 l -5.8775,0 0,19.5935 -7.9769,0 0,-51.6426 z m -581.3144,4.6192 c -4.4549,0 -7.8144,1.9347 -10.216,5.5981 -2.4016,3.663 -3.6384,8.7985 -3.6384,15.5346 0,6.763 1.2368,12.0113 3.6384,15.6748 2.4016,3.6634 5.7611,5.4584 10.216,5.4584 4.4543,0 7.9401,-1.795 10.3551,-5.4584 2.4155,-3.6635 3.6385,-8.9118 3.639,-15.6748 -5e-4,-6.7361 -1.2235,-11.8716 -3.639,-15.5346 -2.415,-3.6634 -5.9008,-5.5981 -10.3551,-5.5981 z m 298.4941,0 c -4.4544,0 -7.8139,1.9347 -10.2155,5.5981 -2.402,3.663 -3.6389,8.7985 -3.6389,15.5346 0,6.763 1.2369,12.0113 3.6389,15.6748 2.4016,3.6634 5.7611,5.4584 10.2155,5.4584 4.4544,0 7.9401,-1.795 10.3552,-5.4584 2.415,-3.6635 3.6385,-8.9118 3.6385,-15.6748 0,-6.7361 -1.2235,-11.8716 -3.6385,-15.5346 -2.4151,-3.6634 -5.9008,-5.5981 -10.3552,-5.5981 z m -407.3688,1.2593 0,16.3748 2.6591,0 c 10.6803,0 16.093,-2.9993 16.0935,-8.957 -5e-4,-2.9254 -1.0125,-4.8583 -3.0792,-5.8781 -2.0662,-1.0197 -6.1041,-1.5397 -12.0345,-1.5397 l -3.6389,0 z m 698.166,0 0,20.1533 4.8977,0 c 10.734,0 16.2331,-3.6818 16.2331,-11.1963 0,-3.1667 -1.0523,-5.4888 -3.0782,-6.8575 -2.0264,-1.369 -5.4929,-2.0995 -10.2159,-2.0995 l -7.8367,0 z m -888.6256,2.0995 -9.3763,24.7715 18.8923,0 -9.516,-24.7715 z m 190.4596,19.3136 0,18.3336 7.1372,0 c 5.2327,0 8.8031,-0.4657 10.7753,-1.5392 1.9726,-1.0735 2.939,-3.1466 2.939,-6.0182 0,-3.3276 -1.6645,-5.8785 -4.8977,-7.8374 -3.2337,-1.9589 -7.5998,-2.9388 -13.155,-2.9388 l -2.7988,0 z m 208.5127,81.0327 c 4.642,0 9.8769,0.8823 15.6734,2.5192 l 0,6.8579 c -5.8233,-2.2545 -10.9987,-3.3589 -15.5337,-3.3589 -7.165,0 -10.7757,2.4467 -10.7752,7.2776 -5e-4,1.9589 0.7572,3.4243 2.0989,4.6183 1.3416,1.1944 3.7943,2.5173 7.4171,3.7789 l 5.0379,1.6795 4.8977,1.6794 c 7.4869,2.6298 11.1953,7.1553 11.1953,13.4355 0,4.7768 -1.9135,8.4778 -5.7378,11.336 -3.8239,2.8582 -8.98,4.3388 -15.3931,4.3388 -4.4548,0 -10.1555,-0.8939 -17.213,-2.7991 l 0,-7.8374 c 7.0306,3.1668 12.8504,4.7584 17.4924,4.7584 3.9179,0 7.0419,-0.8361 9.3763,-2.3794 2.3344,-1.5433 3.4983,-3.5546 3.4983,-6.1579 0,-1.9858 -0.7169,-3.6043 -2.0989,-4.7584 -1.3819,-1.1542 -4.2161,-2.4753 -8.5366,-4.0585 l -5.3173,-1.9593 c -5.2869,-1.9594 -9.0028,-3.9518 -11.0556,-6.0182 -2.0528,-2.0664 -3.0787,-4.822 -3.0787,-8.2571 0,-4.6428 1.6049,-8.227 4.758,-10.7766 3.153,-2.5496 7.5787,-3.9187 13.2946,-3.9187 z m -118.5303,1.1197 7.5568,0 23.6503,37.5074 0.1388,0 0,-37.3673 6.4373,0 0,51.6426 -7.277,0 -23.9297,-37.7874 -0.1388,0 0,37.7874 -6.4373,0 0,-51.7827 z m 596.9883,0 7.5568,0 23.6498,37.5074 0.1388,0 0,-37.3673 6.4373,0 0,51.6426 -7.2769,0 -23.9302,-37.7874 -0.1388,0 0,37.7874 -6.4373,0 0,-51.7827 z m -994.981,0.1388 39.4634,0 0,6.0178 -32.4663,39.7467 32.7462,0 0,5.878 -41.7025,0 0,-5.878 32.4664,-39.7467 -30.5072,0 0,-6.0178 z m 94.1803,0 6.7172,0 6.2976,42.9654 0.1388,0 7.4166,-32.0491 7.697,0 7.277,31.4893 0.1388,0 6.5774,-42.4056 6.1575,0 -8.5367,51.6425 -8.6763,0 -7.1372,-30.2299 -7.1368,30.2299 -9.2361,0 -7.697,-51.6425 z m 107.615,0 34.8455,0 0,6.0178 -27.0088,0 0,15.6747 22.9503,0 0,5.8781 -22.9503,0 0,18.1939 28.8278,0 0,5.878 -36.6645,0 0,-51.6425 z m 97.6788,0 35.825,0 0,6.0178 -13.8544,0 0,39.7467 13.8544,0 0,5.878 -35.825,0 0,-5.878 13.9942,0 0,-39.7467 -13.9942,0 0,-6.0178 z m 298.4942,0 35.8249,0 0,6.0178 -13.8539,0 0,39.7467 13.8539,0 0,5.878 -35.8249,0 0,-5.878 13.9941,0 0,-39.7467 -13.9941,0 0,-6.0178 z m 101.3173,0 34.8452,0 0,6.0178 -26.8683,0 0,15.6747 22.8097,0 0,5.8781 -22.8097,0 0,18.1939 28.6877,0 0,5.878 -36.6646,0 0,-51.6425 z m 98.2387,0 16.6528,0 c 12.0757,0 18.1923,4.0387 18.1923,12.036 0,3.0592 -1.1392,5.6232 -3.2189,7.8374 -2.0796,2.2141 -4.946,3.8192 -8.6759,4.7584 9.5796,1.9589 14.4137,6.5767 14.4137,13.7154 0,4.079 -1.5207,7.209 -4.3379,9.5168 -1.8248,1.5299 -3.823,2.5823 -6.1574,3.079 -2.3349,0.4967 -6.1565,0.6995 -11.3355,0.6995 l -15.5332,0 0,-51.6425 z m 100.7576,0 34.8451,0 0,6.0178 -26.8687,0 0,15.6747 22.8106,0 0,5.8781 -22.8106,0 0,18.1939 28.8279,0 0,5.878 -36.8043,0 0,-51.6425 z m -92.7812,6.0178 0,16.3747 2.7988,0 c 10.6803,0 15.9533,-2.9992 15.9533,-8.957 0,-2.9254 -1.0125,-4.8583 -3.0787,-5.878 -2.0662,-1.0198 -6.1045,-1.5393 -12.0349,-1.5397 l -3.6385,0 z m 0,21.2729 0,18.4738 7.1372,0 c 5.2327,0 8.8031,-0.6055 10.7753,-1.6794 1.9721,-1.0731 2.9385,-3.0065 2.9385,-5.8781 0,-3.3275 -1.5243,-6.0182 -4.7575,-7.9771 -3.2337,-1.9589 -7.74,-2.9388 -13.2947,-2.9392 l -2.7988,0 z m -2.3788,68.9972 6.9966,0 0,6.9976 -6.9966,0 0,-6.9976 z m 19.8712,0 6.9975,0 0,6.9976 -6.9975,0 0,-6.9976 z m 72.49,13.1556 7.5563,0 23.6503,37.6472 0.1388,0 0,-37.3673 6.4369,0 0,51.6425 -7.277,0 -23.9297,-37.9271 -0.1388,0 0,37.9271 -6.4368,0 0,-51.9224 z m -894.6434,0.2776 7.9768,0 0,25.3314 21.6907,-25.3314 7.9768,0 -20.8514,24.3519 24.7698,27.2907 -9.516,0 -24.0699,-26.3112 0,26.3112 -7.9768,0 0,-51.6426 z m 97.9589,0 15.5332,0 c 17.1745,0 25.7492,8.2405 25.7492,24.7715 0,7.6489 -1.8674,13.7509 -5.5976,18.4739 -2.3345,2.9791 -5.1149,5.1633 -8.5362,6.4378 -3.4213,1.2751 -8.0253,1.9594 -13.7142,1.9594 l -13.4344,0 0,-51.6426 z m 101.737,0 14.4141,0 c 6.011,0 10.1201,0.4076 12.4546,1.3996 4.9913,2.0664 7.5568,5.6832 7.5572,10.9163 -4e-4,3.5963 -1.0013,6.6949 -2.7988,9.0968 -1.798,2.4022 -4.7437,4.6513 -8.9562,6.7177 l 18.332,23.5122 -9.6561,0 -16.3729,-21.5528 -7.1372,0 0,21.5528 -7.8367,0 0,-51.6426 z m 100.7576,0 34.8455,0 0,5.8781 -27.0088,0 0,15.6747 22.9503,0 0,6.0178 -22.9503,0 0,18.0542 28.8283,0 0,6.0178 -36.665,0 0,-51.6426 z m 97.6793,0 35.8249,0 0,5.8781 -13.8544,0 0,39.7467 13.8544,0 0,6.0178 -35.8249,0 0,-6.0178 13.9941,0 0,-39.7467 -13.9941,0 0,-5.8781 z m 100.0577,0 14.4137,0 c 6.0109,0 10.1205,0.4076 12.4549,1.3996 4.9914,2.0664 7.5569,5.6832 7.5569,10.9163 0,3.5963 -0.8612,6.6949 -2.6591,9.0968 -1.7976,2.4022 -4.883,4.6513 -9.096,6.7177 l 18.3325,23.5122 -9.6561,0 -16.3734,-21.5528 -7.1367,0 0,21.5528 -7.8367,0 0,-51.6426 z m 97.9587,0 7.9769,0 0,22.5323 21.8308,0 0,-22.5323 7.9764,0 0,51.6426 -7.9764,0 0,-23.0921 -21.8308,0 0,23.0921 -7.9769,0 0,-51.6426 z m 103.5564,0 36.6642,0 0,5.8781 -28.8275,0 0,17.7738 24.6292,0 0,6.0182 -24.6292,0 0,21.9725 -7.8367,0 0,-51.6426 z m 95.7193,0 7.8367,0 0,31.3496 c 0,5.475 0.9279,9.4407 2.6587,11.8958 1.7312,2.4555 4.5323,3.6388 8.3964,3.6388 4.0791,0 7.0186,-1.1833 8.8165,-3.6388 1.798,-2.4551 2.6587,-6.5668 2.6591,-12.1757 l 0,-31.0697 6.9967,0 0,29.95 c 0,6.4679 -0.8491,11.0378 -2.3788,13.8552 -3.2471,5.9846 -8.4932,9.0972 -15.9533,9.0972 -6.4673,0 -11.3144,-1.7757 -14.4137,-5.3182 -3.0998,-3.5425 -4.6183,-9.0211 -4.6183,-16.3748 l 0,-31.2094 z m 202.7749,0 36.6641,0 0,5.8781 -28.6877,0 0,17.7738 24.4899,0 0,6.0182 -24.4899,0 0,21.9725 -7.9764,0 0,-51.6426 z m -892.264,5.8781 0,39.7467 3.9183,0 c 7.5671,0 13.0264,-1.4725 16.2332,-4.4785 3.2063,-3.0055 4.7575,-8.03 4.7575,-15.1149 0,-7.1921 -1.4397,-12.4351 -4.3379,-15.5351 -2.8982,-3.0996 -7.7915,-4.6182 -14.5539,-4.6182 l -6.0172,0 z m 101.5968,0 0,18.1939 4.1986,0 c 4.2663,0 7.7199,-0.9203 10.2155,-2.7991 2.4957,-1.8787 3.6385,-4.3638 3.6385,-7.5574 0,-2.9787 -0.9203,-5.0576 -2.7988,-6.158 -1.8786,-1.1004 -5.3106,-1.6794 -10.3557,-1.6794 l -4.8981,0 z m 298.4946,0 0,18.1939 4.1982,0 c 4.2667,0 7.7203,-0.9203 10.2155,-2.7991 2.4956,-1.8787 3.6384,-4.3638 3.6389,-7.5574 -5e-4,-2.9787 -0.9207,-5.0576 -2.7988,-6.158 -1.8786,-1.1004 -5.3111,-1.6794 -10.3561,-1.6794 l -4.8977,0 z m -208.3726,103.5654 7.5573,0 23.6498,37.5075 0.1388,0 0,-37.3678 6.4378,0 0,51.643 -7.277,0 -23.9301,-37.7873 -0.1388,0 0,37.7873 -6.4378,0 0,-51.7827 z m 298.4946,0 7.5568,0 23.6499,37.5075 0.1388,0 0,-37.3678 6.4373,0 0,51.643 -7.277,0 -23.9301,-37.7873 -0.1388,0 0,37.7873 -6.4373,0 0,-51.7827 z m -594.1901,0.1389 34.8451,0 0,6.0177 -27.0084,0 0,15.6748 22.9504,0 0,5.878 -22.9504,0 0,18.194 28.8279,0 0,5.878 -36.6646,0 0,-51.6425 z m 99.6383,0 7.9764,0 0,45.7645 27.8485,0 0,5.878 -35.8249,0 0,-51.6425 z m 100.6178,0 36.6642,0 0,6.0177 -28.8274,0 0,17.7743 24.6296,0 0,5.8781 -24.6296,0 0,21.9724 -7.8368,0 0,-51.6425 z m 197.7366,0 34.8451,0 0,6.0177 -27.0084,0 0,15.6748 22.9503,0 0,5.878 -22.9503,0 0,18.194 28.8279,0 0,5.878 -36.6646,0 0,-51.6425 z m 96.979,0 7.8367,0 0,31.3495 c 0,5.475 0.9283,9.4402 2.6591,11.8958 1.7308,2.456 4.5323,3.6388 8.3964,3.6388 4.0787,0 7.0186,-1.1828 8.8165,-3.6388 1.7976,-2.4556 2.6587,-6.4267 2.6587,-12.036 l 0,-31.2093 6.9971,0 0,29.95 c 0,6.4678 -0.8495,11.1774 -2.3788,13.9953 -3.2471,5.9846 -8.6334,8.957 -16.0935,8.957 -6.4673,0 -11.1747,-1.7757 -14.274,-5.3182 -3.0993,-3.5425 -4.6182,-9.0211 -4.6182,-16.3748 l 0,-31.2093 z m 193.399,0 8.3965,0 16.5126,41.006 16.7925,-41.006 6.7171,0 -20.4305,51.6425 -7.9768,0 -20.0114,-51.6425 z m 105.9348,0 35.6852,0 0,6.0177 -13.8544,0 0,39.7468 13.8544,0 0,5.878 -35.6852,0 0,-5.878 13.8543,0 0,-39.7468 -13.8543,0 0,-6.0177 z m 101.1776,0 34.8451,0 0,6.0177 -26.8687,0 0,15.6748 22.8106,0 0,5.878 -22.8106,0 0,18.194 28.8279,0 0,5.878 -36.8043,0 0,-51.6425 z m 98.2382,0 14.4142,0 c 6.0109,0 10.12,0.5463 12.4545,1.5392 4.9913,2.0668 7.5568,5.6837 7.5573,10.9164 -5e-4,3.5962 -0.8612,6.5552 -2.6591,8.957 -1.798,2.4023 -4.8834,4.6514 -9.096,6.7177 l 18.3321,23.5122 -9.6562,0 -16.2332,-21.4126 -7.2769,0 0,21.4126 -7.8367,0 0,-51.6425 z m 7.8367,6.0177 0,18.194 4.1987,0 c 4.2663,4e-4 7.7198,-0.9204 10.2155,-2.7991 2.4956,-1.8783 3.7781,-4.5036 3.7786,-7.6972 -5e-4,-2.9787 -1.0604,-5.0576 -2.939,-6.158 -1.8786,-1.1003 -5.3106,-1.5392 -10.3556,-1.5397 l -4.8982,0 z m -783.11,102.4458 c 0.9588,-0.076 1.9328,0 2.939,0 4.5619,5e-4 9.4878,0.683 14.6941,2.2393 l 0,7.2776 c -5.3133,-2.4417 -10.3584,-3.6384 -14.974,-3.6388 -5.3401,4e-4 -9.7063,1.9602 -13.1544,5.878 -3.4482,3.9183 -5.1781,8.91 -5.1781,14.9752 0,6.119 1.987,11.0839 5.878,14.9748 3.8906,3.8918 8.855,5.8781 14.9735,5.8781 3.7029,0 8.1363,-1.0068 13.1545,-2.9388 l 0,6.5775 c -5.3133,1.9057 -10.2778,2.9393 -14.974,2.9393 -8.211,0 -14.8534,-2.4927 -19.8712,-7.4178 -5.0181,-4.9241 -7.5572,-11.4291 -7.5572,-19.4532 0,-8.1317 2.4258,-14.6882 7.4171,-19.7337 4.3675,-4.4144 9.9436,-7.0053 16.6527,-7.5575 z m 792.7662,0 c 4.6424,5e-4 9.8769,0.7426 15.6734,2.3795 l 0,6.8575 c -5.8234,-2.2541 -10.9983,-3.3585 -15.5333,-3.3589 -7.165,4e-4 -10.6359,2.447 -10.6355,7.2775 -4e-4,1.9594 0.6171,3.5645 1.9587,4.7585 1.3421,1.1944 3.7943,2.3776 7.4171,3.6387 l 5.0379,1.8197 4.8977,1.6794 c 7.487,2.6302 11.1953,7.0156 11.1953,13.2953 0,4.7773 -1.9135,8.6185 -5.7373,11.4762 -3.8239,2.8582 -8.98,4.3388 -15.3936,4.3388 -4.4544,0 -10.1554,-1.0336 -17.2125,-2.9393 l 0,-7.8373 c 7.0302,3.1667 12.8499,4.7584 17.4924,4.7584 3.9179,0 7.0414,-0.8357 9.3763,-2.379 2.3344,-1.5433 3.4983,-3.5546 3.4983,-6.158 0,-1.9857 -0.7174,-3.6043 -2.0993,-4.7584 -1.382,-1.1541 -4.2157,-2.4752 -8.5362,-4.0588 l -5.3178,-1.9594 c -5.2864,-1.9589 -8.8626,-3.9514 -10.9154,-6.0177 -2.0528,-2.0664 -3.0787,-4.8221 -3.0787,-8.2575 0,-4.6424 1.4648,-8.2266 4.6183,-10.7762 3.153,-2.5496 7.5783,-3.7785 13.2942,-3.779 z m -218.0283,0.9799 7.5568,0 23.6503,37.6472 0.1388,0 0,-37.3673 6.4373,0 0,51.6426 -7.2769,0 -23.9297,-37.9271 -0.1388,0 0,37.9271 -6.4373,0 0,-51.9225 z m -801.3025,0.2777 6.7172,0 6.2976,42.8257 0.1388,0 7.4167,-31.9093 7.697,0 7.2769,31.4892 0.1388,0 6.5775,-42.4056 6.1574,0 -8.5362,51.6425 -8.6768,0 -7.1368,-30.3696 -7.1367,30.3696 -9.2366,0 -7.6965,-51.6425 z m 119.7898,0 7.8367,0 20.4314,51.6425 -8.3965,0 -4.8981,-13.0154 -23.6498,0 -4.8982,13.0154 -6.8569,0 20.4314,-51.6425 z m 184.0223,0 7.9769,0 0,22.5323 21.8308,0 0,-22.5323 7.9769,0 0,51.6425 -7.9769,0 0,-23.2322 -21.8308,0 0,23.2322 -7.9769,0 0,-51.6425 z m 94.6002,0 47.58,0 0,5.878 -19.7315,0 0,45.7645 -7.9764,0 0,-45.7645 -19.8721,0 0,-5.878 z m 104.3965,0 39.463,0 0,5.878 -32.3262,39.7468 32.6065,0 0,6.0177 -41.7029,0 0,-6.0177 32.4663,-39.7468 -30.5067,0 0,-5.878 z m 102.2967,0 34.8456,0 0,5.878 -26.8687,0 0,15.6748 22.8102,0 0,6.0178 -22.8102,0 0,18.0542 28.6877,0 0,6.0177 -36.6646,0 0,-51.6425 z m 96.6991,0 7.9769,0 0,22.5323 21.8304,0 0,-22.5323 7.9768,0 0,51.6425 -7.9768,0 0,-23.2322 -21.8304,0 0,23.2322 -7.9769,0 0,-51.6425 z m 200.5354,0 14.4137,0 c 6.011,0 10.1205,0.4075 12.455,1.3995 4.9913,2.0664 7.5568,5.6833 7.5568,10.9164 0,3.5962 -0.8611,6.6949 -2.6591,9.0967 -1.7975,2.4023 -4.8829,4.6514 -9.0959,6.7178 l 18.3325,23.5121 -9.6562,0 -16.2332,-21.5528 -7.2769,0 0,21.5528 -7.8367,0 0,-51.6425 z m 7.8367,5.878 0,18.194 4.1982,0 c 4.2668,0 7.7203,-0.9204 10.2155,-2.7991 2.4957,-1.8787 3.7786,-4.3639 3.7786,-7.5575 0,-2.9786 -1.0604,-5.0576 -2.9385,-6.1579 -1.8786,-1.1004 -5.311,-1.6795 -10.3561,-1.6795 l -4.8977,0 z m -787.3082,2.1 -9.3763,24.7715 18.8923,0 -9.516,-24.7715 z m 0.9798,100.3463 c 4.642,0 9.877,0.8823 15.6734,2.5192 l 0,6.8579 c -5.8233,-2.2545 -10.9987,-3.3589 -15.5337,-3.3589 -7.1649,0 -10.7756,2.3069 -10.7752,7.1374 -4e-4,1.9589 0.7572,3.5645 2.0989,4.7584 1.3416,1.1944 3.7943,2.5174 7.4171,3.779 l 5.0379,1.6794 4.8977,1.6795 c 7.487,2.6297 11.1953,7.1553 11.1953,13.4355 0,4.7768 -1.9135,8.4778 -5.7378,11.336 -3.8239,2.8582 -8.98,4.3388 -15.3931,4.3388 -4.4548,0 -10.1555,-0.894 -17.213,-2.7991 l 0,-7.9776 c 7.0307,3.1668 12.8504,4.7584 17.4924,4.7584 3.9179,0 7.0419,-0.6959 9.3763,-2.2392 2.3344,-1.5433 3.4983,-3.6948 3.4983,-6.2977 0,-1.9862 -0.7169,-3.4646 -2.0989,-4.6187 -1.3819,-1.1541 -4.2161,-2.6154 -8.5366,-4.1986 l -5.3173,-1.8191 c -5.2869,-1.9594 -9.0028,-4.0916 -11.0556,-6.158 -2.0528,-2.0668 -3.0787,-4.6823 -3.0787,-8.1173 0,-4.6428 1.605,-8.3672 4.758,-10.9163 3.153,-2.5496 7.5788,-3.779 13.2946,-3.779 z m 205.1532,0 c 4.5619,0 9.4883,0.8227 14.6941,2.3794 l 0,7.2776 c -5.3133,-2.4421 -10.2182,-3.6388 -14.8338,-3.6388 -5.3401,0 -9.846,1.9598 -13.2946,5.8781 -3.4482,3.9178 -5.1776,8.9095 -5.1776,14.9747 0,6.119 1.9865,11.0839 5.8775,14.9753 3.891,3.8913 8.8555,5.878 14.9735,5.878 3.7034,0 8.1367,-1.0068 13.1549,-2.9392 l 0,6.578 c -5.3133,1.9051 -10.2777,2.7991 -14.9739,2.7991 -8.2115,0 -14.8535,-2.4932 -19.8717,-7.4178 -5.0181,-4.9246 -7.5568,-11.4291 -7.5568,-19.4533 0,-8.1316 2.4258,-14.6881 7.4167,-19.7336 4.9913,-5.0451 11.5414,-7.5575 19.5917,-7.5575 z m 192.8393,0 c 4.642,0 9.8769,0.8823 15.6734,2.5192 l 0,6.8579 c -5.8233,-2.2545 -10.9987,-3.3589 -15.5337,-3.3589 -7.165,0 -10.7757,2.3069 -10.7752,7.1374 -5e-4,1.9589 0.7572,3.5645 2.0989,4.7584 1.3416,1.1944 3.7943,2.5174 7.4171,3.779 l 5.0379,1.6794 4.8977,1.6795 c 7.4869,2.6297 11.1953,7.1553 11.1953,13.4355 0,4.7768 -1.9135,8.4778 -5.7378,11.336 -3.8239,2.8582 -8.98,4.3388 -15.3931,4.3388 -4.4548,0 -10.1555,-0.894 -17.213,-2.7991 l 0,-7.9776 c 7.0306,3.1668 12.8504,4.7584 17.4924,4.7584 3.9179,0 7.0419,-0.6959 9.3763,-2.2392 2.3344,-1.5433 3.4983,-3.6948 3.4983,-6.2977 0,-1.9862 -0.7169,-3.4646 -2.0989,-4.6187 -1.3819,-1.1541 -4.2161,-2.6154 -8.5366,-4.1986 l -5.3173,-1.8191 c -5.2869,-1.9594 -9.0028,-4.0916 -11.0556,-6.158 -2.0528,-2.0668 -3.0787,-4.6823 -3.0787,-8.1173 0,-4.6428 1.6049,-8.3672 4.758,-10.9163 3.153,-2.5496 7.5787,-3.779 13.2946,-3.779 z m -514.9834,1.2598 16.6528,0 c 12.0756,0 18.0521,4.0383 18.0526,12.036 -5e-4,3.0593 -0.9995,5.6232 -3.0792,7.8374 -2.0796,2.2137 -4.9461,3.8188 -8.6759,4.7584 9.5796,1.9589 14.2736,6.5767 14.2736,13.7154 0,4.079 -1.3806,7.2086 -4.1978,9.5168 -1.8248,1.5294 -3.823,2.5823 -6.1574,3.079 -2.3349,0.4962 -6.1565,0.6996 -11.3355,0.6996 l -15.5332,0 0,-51.6426 z m 200.2557,0 34.8455,0 0,6.0178 -27.0088,0 0,15.535 22.9503,0 0,6.0178 -22.9503,0 0,18.0542 28.8278,0 0,6.0178 -36.6645,0 0,-51.6426 z m 196.1974,0 7.9764,0 0,22.5323 21.8308,0 0,-22.5323 7.9769,0 0,51.6426 -7.9769,0 0,-23.0921 -21.8308,0 0,23.0921 -7.9764,0 0,-51.6426 z m 203.0547,0 36.6642,0 0,6.0178 -28.8275,0 0,17.7743 24.6297,0 0,5.878 -24.6297,0 0,21.9725 -7.8367,0 0,-51.6426 z m 93.3405,0 9.516,0 11.3355,31.7692 0.1388,0 11.0551,-31.7692 9.9356,0 0,51.6426 -6.4373,0 0,-44.365 -0.1388,0 -11.6149,33.4486 -6.5774,0 -11.6149,-32.4692 -0.1388,0 0,43.3856 -5.4575,0 0,-51.6426 z m 101.8767,0 7.8367,0 0,31.3495 c 0,5.4746 0.9279,9.4403 2.6587,11.8959 1.7312,2.4555 4.5323,3.6387 8.3964,3.6387 4.0791,0 7.0186,-1.1832 8.8165,-3.6387 1.798,-2.4556 2.6587,-6.4271 2.6591,-12.036 l 0,-31.2094 6.9967,0 0,29.95 c 0,6.4674 -0.8491,11.1775 -2.3788,13.9953 -3.2471,5.9847 -8.4932,8.9571 -15.9533,8.9571 -6.4673,0 -11.3144,-1.7762 -14.4137,-5.3183 -3.0998,-3.5425 -4.6183,-9.0215 -4.6183,-16.3747 l 0,-31.2094 z m 99.2185,0 7.9764,0 0,22.5323 21.8308,0 0,-22.5323 7.9764,0 0,51.6426 -7.9764,0 0,-23.0921 -21.8308,0 0,23.0921 -7.9764,0 0,-51.6426 z m 101.037,0 14.4142,0 c 6.0109,0 10.12,0.5464 12.4545,1.5393 4.9913,2.0664 7.5568,5.6832 7.5573,10.9163 -5e-4,3.5963 -0.8612,6.5552 -2.6591,8.957 -1.798,2.4019 -4.8834,4.6514 -9.096,6.7178 l 18.3321,23.5122 -9.6562,0 -16.2332,-21.5529 -7.2769,0 0,21.5529 -7.8367,0 0,-51.6426 z m -987.1438,6.0178 0,16.3747 2.7988,0 c 10.6799,0 16.093,-2.9992 16.093,-8.957 0,-2.9253 -1.0125,-4.8583 -3.0787,-5.878 -2.0662,-1.0198 -6.1046,-1.5397 -12.0349,-1.5397 l -3.7782,0 z m 994.9805,0 0,18.1939 4.1987,0 c 4.2663,0 7.7198,-1.0605 10.2155,-2.9388 2.4956,-1.8787 3.7781,-4.3638 3.7786,-7.5575 -5e-4,-2.9791 -1.0604,-5.0575 -2.939,-6.1579 -1.8786,-1.1004 -5.3106,-1.5397 -10.3556,-1.5397 l -4.8982,0 z m -994.9805,21.2729 0,18.3341 7.2769,0 c 5.2327,0 8.8031,-0.4662 10.7753,-1.5397 1.9721,-1.0735 2.9385,-3.0064 2.9385,-5.8781 0,-3.3275 -1.6641,-6.0182 -4.8977,-7.9771 -3.2337,-1.9593 -7.5998,-2.9392 -13.1545,-2.9392 l -2.9385,0 z m -199.6962,194.1154 c 6.4086,0 11.6153,4.9654 11.6153,11.1963 0,6.2305 -5.2067,11.336 -11.6153,11.336 -6.4082,0 -11.6153,-5.1055 -11.6153,-11.336 0,-6.2309 5.2071,-11.1963 11.6153,-11.1963 z m 1412.8451,0 c 6.4086,0 11.6153,4.9654 11.6153,11.1963 0,6.2305 -5.2067,11.336 -11.6153,11.336 -6.4082,0 -11.6153,-5.1055 -11.6153,-11.336 0,-6.2309 5.2071,-11.1963 11.6153,-11.1963 z"
       id="rect18501-5-8" />
  </g>
</svg>
